<?xml version="1.0" encoding="utf-8"?>
<!-- Generator: Adobe Illustrator 25.2.3, SVG Export Plug-In . SVG Version: 6.00 Build 0)  -->
<svg version="1.1" id="Layer_1" xmlns="http://www.w3.org/2000/svg" xmlns:xlink="http://www.w3.org/1999/xlink" x="0px" y="0px"
	 viewBox="0 0 893.5 112.1" style="enable-background:new 0 0 893.5 112.1;" xml:space="preserve">
<style type="text/css">
	.st0{fill:#6168B0;}
	.st1{fill:#FFFFFF;}
</style>
<g id="g2WV3R_1_">
	<g>
		<path class="st0" d="M63.7,43.5c6.1-5.5,12-10.8,18-16.2c3.1-2.8,4.2-2.5,5.3,1.6c1.8,6.5,3.4,13.1,5.2,20c8.8-5,17.3-9.9,26.1-15
			c-4.2-8.2-8.3-16.2-12.6-24.1C105.5,9.3,104,9,103,9c-6.2-0.1-12.5,0-18.7,0C83.2,9,82,9,81,8.7c-2.3-0.7-3.4-2.4-3.2-4.8
			c0.3-2.5,1.8-3.8,4.3-3.8c8.7,0,17.4-0.2,26.1,0.2c1.6,0.1,3.7,1.9,4.6,3.5c4.2,7.6,8.1,15.4,12.1,23.1c0.4,0.9,1,1.7,1.5,2.7
			c5.8-3.3,11.4-6.5,16.9-9.7c2.1-1.2,4.3-1.9,5.9,0.4c1.8,2.5,0.4,4.3-1.7,5.9c-19.6,15-39.3,30.1-58.9,45.1
			c-2.6,1.9-3.5,1.7-4.6-1.4c-2.4-6.6-4.6-13.2-7-20.3c-3,2.2-5.7,4.1-8.5,6.1c-9.8,7-19.5,14.1-29.2,21.1c-0.5,0.3-0.9,0.7-1.3,1
			c-2.1,1.4-4.2,1.6-6-0.5c-1.8-2.1-1.2-4.2,0.7-5.9c4.1-3.8,8.3-7.5,12.4-11.2c3.8-3.4,7.6-6.8,11.6-10.5
			c-5.9-4.7-12.4-6.6-19.5-6.2c-15.2,1-27.5,13-28.1,27.2c-0.8,16.5,9.4,29.6,25.2,32.3c11.5,2,24.2-4.2,30.2-14.9
			c0.5-0.9,0.9-1.8,1.3-2.7c1.5-2.8,3.9-3.9,6.3-2.6c2.6,1.4,3.1,3.6,1.9,6.2c-5.5,11.9-14.5,19.8-27.4,22.2
			C24,115.6,4,101.8,0.5,79.1c-3.7-24,14.3-42.5,33.6-44.2C46.1,33.8,52.4,35.7,63.7,43.5z"/>
		<path class="st0" d="M142.5,111.3c-16-0.4-27.7-7.6-34.9-22c-1.7-3.4-1.1-5.9,1.5-7.2c2.6-1.3,4.8-0.2,6.5,3.2
			c6,12,16.9,18.1,30.3,17c11.2-0.9,21.4-9.4,25.1-21c4.8-15.2-3.9-32.1-19-37c-1.3-0.4-2.6-0.7-3.8-1.2c-2.4-0.9-3.6-2.7-3-5.2
			c0.6-2.5,2.6-4,5-3.2c4.7,1.6,9.6,3,13.7,5.7c13.5,8.7,19.9,25.2,16.4,40.8c-3.5,15.6-16.2,27.6-32.1,30.1
			C146.4,111.5,144.4,111.3,142.5,111.3z"/>
		<path class="st0" d="M143.4,79c-0.7-0.6-2.4-1.5-3.2-2.9c-4-7.4-7.8-15-11.7-22.5c-1.3-2.5-0.9-4.8,1.6-6.3
			c2.3-1.4,4.9-0.4,6.4,2.4c3.9,7.5,7.9,15,11.6,22.5C149.8,75.4,147.7,78.9,143.4,79z"/>
	</g>
</g>
<g>
	<path class="st1" d="M262.6,69.6v12H230V30.4h32v11.9h-18.7v7.6h17.2v11.7h-17.2v8H262.6z"/>
	<path class="st1" d="M311,59.8c1.3,2.1,1.9,4.4,1.9,6.9c0,2.9-0.7,5.5-2.1,7.8c-1.4,2.3-3.4,4-6,5.3c-2.6,1.2-5.5,1.9-8.9,1.9
		h-24.2V30.4h21.6c3.4,0,6.4,0.6,9.1,1.9c2.6,1.2,4.7,3,6.1,5.3c1.4,2.3,2.2,4.9,2.2,7.8c0,2-0.4,3.8-1.3,5.5
		c-0.9,1.7-2.1,3.1-3.7,4.3C308,56.1,309.8,57.7,311,59.8z M295.9,43c-0.9-0.8-2.1-1.2-3.6-1.2h-7.2v8.8h7.2c1.6,0,2.8-0.4,3.6-1.2
		c0.9-0.8,1.3-1.9,1.3-3.2C297.2,44.8,296.7,43.8,295.9,43z M298,68.9c0.9-0.8,1.4-1.9,1.4-3.2c0-1.4-0.5-2.4-1.4-3.2
		c-0.9-0.8-2.2-1.2-3.8-1.2h-9.2v8.8h9.2C295.9,70.1,297.1,69.7,298,68.9z"/>
	<path class="st1" d="M334.7,30.4v51.3h-13.4V30.4H334.7z"/>
	<path class="st1" d="M389.2,80.9v0.7h-14.6l-9.4-20.5c-1.3,0.1-2.7,0.2-4,0.2h-2v20.3h-13.4V30.4h13.4v19.1h1.3
		c4.4,0,7.5-1.5,9.2-4.6c1.7-3.1,2.6-7.9,2.6-14.5h13.4c0,6.2-0.7,11.4-2,15.7c-1.3,4.3-3.5,7.8-6.5,10.3L389.2,80.9z"/>
	<path class="st1" d="M428.7,69.6v12H396V30.4h32v11.9h-18.7v7.6h17.2v11.7h-17.2v8H428.7z"/>
	<path class="st1" d="M463.3,79.1c-3.9-2.2-7-5.4-9.2-9.4c-2.2-4-3.3-8.6-3.3-13.7s1.1-9.7,3.3-13.7c2.2-4,5.2-7.1,9.2-9.4
		c3.9-2.2,8.3-3.4,13.3-3.4c6.6,0,12.1,1.7,16.4,5.2c4.3,3.5,7.2,8.2,8.5,14.2h-13.3c-1-2.1-2.5-3.7-4.4-4.9
		c-1.9-1.2-4.2-1.8-6.7-1.8c-3.8,0-6.8,1.2-9.1,3.7s-3.5,5.8-3.5,10c0,4.1,1.2,7.4,3.5,9.9c2.3,2.5,5.4,3.8,9.1,3.8
		c2.7,0,5.1-0.7,7.1-2c2-1.3,3.5-3.2,4.4-5.6h13.2c-1.2,6.2-4,11.2-8.4,14.9c-4.4,3.7-10,5.5-16.8,5.5
		C471.6,82.4,467.2,81.3,463.3,79.1z"/>
	<path class="st1" d="M519.7,79.1c-4.1-2.2-7.3-5.4-9.6-9.4c-2.3-4-3.4-8.6-3.4-13.7s1.1-9.7,3.4-13.7c2.3-4,5.5-7.1,9.6-9.4
		c4.1-2.2,8.7-3.4,13.9-3.4c5.2,0,9.8,1.1,13.9,3.4c4.1,2.2,7.3,5.4,9.6,9.4c2.3,4,3.4,8.6,3.4,13.7s-1.1,9.7-3.4,13.7
		c-2.3,4-5.5,7.1-9.6,9.4c-4.1,2.2-8.7,3.4-13.9,3.4C528.4,82.4,523.8,81.3,519.7,79.1z M543.1,65.9c2.4-2.5,3.6-5.8,3.6-9.9
		s-1.2-7.4-3.6-9.9c-2.4-2.5-5.6-3.8-9.6-3.8c-4,0-7.1,1.2-9.6,3.7c-2.4,2.5-3.6,5.8-3.6,10c0,4.1,1.2,7.4,3.6,9.9
		c2.4,2.5,5.6,3.8,9.6,3.8C537.5,69.7,540.7,68.5,543.1,65.9z"/>
	<path class="st1" d="M621.7,30.2v51.4h-13.4V67.4l0.3-11.3l-12.9,13.1h-1l-12.8-13.1l0.2,11.3v14.2h-13.4V30.2h5.4l21.1,22.2
		l21-22.2H621.7z"/>
	<path class="st1" d="M665.2,32.7c2.9,1.5,5.1,3.7,6.7,6.5c1.6,2.8,2.4,6,2.4,9.7c0,3.7-0.8,7-2.4,9.8c-1.6,2.8-3.9,5-6.8,6.5
		c-2.9,1.5-6.2,2.3-10,2.3H646v14.1h-13.4V30.4h22.5C659,30.4,662.3,31.2,665.2,32.7z M658.9,54.1c1.2-1.2,1.8-3,1.8-5.2
		c0-2.2-0.6-3.9-1.8-5.1c-1.2-1.2-2.9-1.8-5.1-1.8H646v13.9h7.8C656,55.9,657.6,55.3,658.9,54.1z"/>
	<path class="st1" d="M726.4,80.9v0.7H712l-2.9-6.5h-19.3l-2.9,6.5h-14.4v-0.7l24.1-51h5.9L726.4,80.9z M694.7,63.6h9.4L699.5,51
		L694.7,63.6z"/>
	<path class="st1" d="M775.5,30.4v51.4h-5.4l-25.8-26.1l0.1,9.2v16.8h-13.2V30.2h5.4l25.9,25.3l-0.2-9.1v-16H775.5z"/>
	<path class="st1" d="M799.9,30.4v51.3h-13.4V30.4H799.9z"/>
	<path class="st1" d="M843.5,69.6v12h-32.7V30.4h32v11.9h-18.7v7.6h17.2v11.7h-17.2v8H843.5z"/>
	<path class="st1" d="M855.8,77.9c-3.7-3-5.6-7.3-5.6-12.7h13.1c0,1.8,0.7,3.1,2.1,4.1c1.4,1,3.3,1.5,5.9,1.5c2.4,0,4.2-0.4,5.6-1.2
		c1.3-0.8,2-1.9,2-3.3c0-1.4-0.7-2.4-2.2-3c-1.4-0.7-3.8-1.2-7-1.5c-6.7-0.7-11.5-2.5-14.5-5.3c-3-2.8-4.4-6.5-4.4-11.1
		c0-3,0.8-5.7,2.5-8.1c1.7-2.4,4-4.2,7.1-5.5s6.5-2,10.5-2c4,0,7.4,0.7,10.5,2.1c3,1.4,5.4,3.4,7.1,5.9c1.7,2.5,2.5,5.5,2.5,8.8
		h-12.9c0-1.6-0.6-2.9-1.9-3.8c-1.2-0.9-3-1.4-5.2-1.4c-2.2,0-3.9,0.4-5.1,1.2c-1.2,0.8-1.8,1.9-1.8,3.2c0,1.3,0.6,2.3,1.8,3
		c1.2,0.7,3.2,1.2,6.1,1.5c7.2,0.7,12.4,2.5,15.6,5.2c3.2,2.8,4.8,6.5,4.8,11.2c0,3.1-0.9,5.9-2.6,8.3s-4.2,4.3-7.4,5.6
		c-3.2,1.3-6.8,2-10.9,2C864.7,82.4,859.5,80.9,855.8,77.9z"/>
</g>
</svg>
