<?xml version="1.0" encoding="utf-8"?>
<!-- Generator: Adobe Illustrator 25.2.3, SVG Export Plug-In . SVG Version: 6.00 Build 0)  -->
<svg version="1.1" id="Layer_1" xmlns="http://www.w3.org/2000/svg" xmlns:xlink="http://www.w3.org/1999/xlink" x="0px" y="0px"
	 viewBox="0 0 893.46 112.05" style="enable-background:new 0 0 893.46 112.05;" xml:space="preserve">
<style type="text/css">
	.st0{fill:#6168B0;}
	.st1{fill:#FFFFFF;}
</style>
<g id="g2WV3R_1_">
	<g>
		<path class="st0" d="M63.71,43.54c6.08-5.47,12.04-10.84,18.01-16.19c3.11-2.78,4.21-2.46,5.32,1.65
			c1.75,6.54,3.44,13.09,5.25,19.99c8.75-5.03,17.3-9.94,26.13-15.01c-4.22-8.16-8.31-16.16-12.56-24.06
			c-0.35-0.64-1.88-0.88-2.87-0.9C96.74,8.95,90.5,9,84.26,8.97c-1.1,0-2.26,0.01-3.3-0.31c-2.32-0.71-3.45-2.4-3.15-4.84
			c0.31-2.46,1.77-3.76,4.28-3.77c8.7-0.02,17.4-0.19,26.08,0.15c1.6,0.06,3.7,1.93,4.58,3.51c4.21,7.59,8.07,15.37,12.06,23.07
			c0.45,0.87,0.96,1.72,1.48,2.66c5.76-3.3,11.36-6.48,16.94-9.71c2.11-1.22,4.27-1.86,5.93,0.44c1.78,2.47,0.41,4.34-1.66,5.92
			c-19.64,15.04-39.26,30.1-58.91,45.13c-2.55,1.95-3.46,1.67-4.56-1.4c-2.36-6.58-4.6-13.2-7.04-20.28
			c-2.99,2.15-5.74,4.11-8.49,6.09c-9.75,7.05-19.5,14.1-29.25,21.14c-0.45,0.33-0.89,0.67-1.35,0.98
			c-2.12,1.42-4.24,1.59-5.98-0.48c-1.78-2.11-1.16-4.17,0.73-5.89c4.12-3.76,8.29-7.45,12.43-11.18
			c3.79-3.42,7.58-6.84,11.64-10.51c-5.92-4.68-12.4-6.61-19.46-6.18C22.08,44.49,9.77,56.48,9.11,70.66
			c-0.77,16.54,9.37,29.56,25.17,32.31c11.51,2.01,24.18-4.25,30.17-14.92c0.49-0.87,0.89-1.79,1.35-2.68
			c1.49-2.85,3.9-3.92,6.26-2.61c2.56,1.42,3.13,3.59,1.92,6.24c-5.47,11.94-14.54,19.79-27.41,22.25
			c-22.6,4.32-42.56-9.44-46.08-32.2C-3.22,55.08,14.78,36.6,34.13,34.84C46.08,33.75,52.36,35.69,63.71,43.54z"/>
		<path class="st0" d="M142.53,111.26c-15.97-0.36-27.73-7.58-34.91-21.95c-1.68-3.37-1.09-5.92,1.46-7.18
			c2.61-1.29,4.78-0.21,6.52,3.25c6.03,11.97,16.9,18.09,30.27,17.03c11.24-0.89,21.42-9.42,25.11-21.05
			c4.83-15.19-3.86-32.1-19.02-37.02c-1.27-0.41-2.57-0.73-3.81-1.2c-2.4-0.9-3.59-2.65-2.97-5.21c0.62-2.55,2.59-4.02,5-3.22
			c4.7,1.57,9.63,3.03,13.73,5.68c13.52,8.72,19.92,25.25,16.43,40.77c-3.52,15.64-16.25,27.6-32.13,30.07
			C146.35,111.51,144.42,111.26,142.53,111.26z"/>
		<path class="st0" d="M143.44,78.99c-0.72-0.62-2.44-1.48-3.19-2.86c-4.03-7.42-7.83-14.97-11.67-22.49
			c-1.3-2.54-0.95-4.82,1.59-6.35c2.26-1.37,4.9-0.38,6.37,2.4c3.94,7.47,7.85,14.96,11.64,22.5
			C149.79,75.42,147.73,78.94,143.44,78.99z"/>
	</g>
</g>
<g>
	<path class="st1" d="M266.13,69.42v11.81h-32.11v-50.4h31.46v11.74h-18.36v7.49h16.92v11.52h-16.92v7.85H266.13z"/>
	<path class="st1" d="M313.76,59.73c1.27,2.04,1.91,4.31,1.91,6.8c0,2.88-0.7,5.44-2.09,7.67c-1.39,2.23-3.36,3.96-5.9,5.18
		c-2.54,1.22-5.45,1.84-8.71,1.84H275.2v-50.4h21.24c3.36,0,6.34,0.61,8.93,1.84c2.59,1.22,4.6,2.95,6.01,5.18
		c1.42,2.23,2.12,4.79,2.12,7.67c0,1.92-0.42,3.71-1.26,5.36c-0.84,1.66-2.05,3.06-3.64,4.21
		C310.77,56.15,312.48,57.69,313.76,59.73z M298.85,43.21c-0.84-0.77-2.03-1.15-3.56-1.15h-7.06v8.64h7.06
		c1.54,0,2.72-0.38,3.56-1.15c0.84-0.77,1.26-1.82,1.26-3.17C300.11,45.03,299.69,43.98,298.85,43.21z M300.94,68.7
		c0.89-0.77,1.33-1.82,1.33-3.17c0-1.34-0.44-2.4-1.33-3.17c-0.89-0.77-2.12-1.15-3.71-1.15h-9v8.64h9
		C298.82,69.85,300.05,69.47,300.94,68.7z"/>
	<path class="st1" d="M337.05,30.83v50.4h-13.18v-50.4H337.05z"/>
	<path class="st1" d="M390.61,80.5v0.72h-14.4l-9.29-20.16c-1.3,0.14-2.62,0.22-3.96,0.22h-1.94v19.94h-13.18v-50.4h13.18v18.79h1.3
		c4.32,0,7.33-1.51,9.04-4.54c1.7-3.02,2.56-7.78,2.56-14.26h13.18c0,6.05-0.66,11.21-1.98,15.48c-1.32,4.27-3.44,7.66-6.37,10.15
		L390.61,80.5z"/>
	<path class="st1" d="M429.42,69.42v11.81h-32.11v-50.4h31.46v11.74h-18.36v7.49h16.92v11.52h-16.92v7.85H429.42z"/>
	<path class="st1" d="M458.26,77.52c-3.67-3-5.51-7.16-5.51-12.49h12.89c0,1.73,0.67,3.07,2.02,4.03c1.34,0.96,3.26,1.44,5.76,1.44
		c2.35,0,4.18-0.4,5.47-1.19s1.94-1.88,1.94-3.28c0-1.34-0.71-2.34-2.12-2.99c-1.42-0.65-3.71-1.14-6.88-1.48
		c-6.58-0.72-11.32-2.47-14.22-5.26c-2.91-2.78-4.36-6.43-4.36-10.94c0-2.98,0.83-5.63,2.48-7.96c1.66-2.33,3.97-4.14,6.95-5.44
		c2.98-1.3,6.41-1.94,10.3-1.94c3.89,0,7.32,0.68,10.3,2.05c2.98,1.37,5.29,3.3,6.95,5.8c1.66,2.5,2.48,5.38,2.48,8.64h-12.67
		c0-1.58-0.61-2.82-1.84-3.71c-1.22-0.89-2.92-1.33-5.08-1.33s-3.83,0.38-5,1.15c-1.18,0.77-1.76,1.82-1.76,3.17
		c0,1.3,0.58,2.28,1.73,2.95c1.15,0.67,3.14,1.15,5.98,1.44c7.06,0.72,12.17,2.44,15.34,5.15s4.75,6.4,4.75,11.05
		c0,3.07-0.86,5.8-2.59,8.17c-1.73,2.38-4.15,4.21-7.27,5.51c-3.12,1.3-6.7,1.94-10.73,1.94C467.03,82.02,461.93,80.52,458.26,77.52
		z"/>
	<path class="st1" d="M511.72,78.7c-3.84-2.21-6.84-5.28-9-9.22c-2.16-3.94-3.24-8.42-3.24-13.46s1.08-9.53,3.24-13.46
		c2.16-3.94,5.16-7.01,9-9.22c3.84-2.21,8.21-3.31,13.1-3.31c6.53,0,11.92,1.72,16.16,5.15c4.25,3.43,7.04,8.08,8.39,13.93h-13.1
		c-1.01-2.06-2.46-3.67-4.36-4.82c-1.9-1.15-4.09-1.73-6.59-1.73c-3.7,0-6.68,1.22-8.96,3.67c-2.28,2.45-3.42,5.71-3.42,9.79
		c0,4.03,1.14,7.28,3.42,9.76c2.28,2.47,5.27,3.71,8.96,3.71c2.69,0,5.03-0.66,7.02-1.98s3.44-3.16,4.36-5.51h12.96
		c-1.2,6.15-3.96,11.02-8.28,14.62c-4.32,3.6-9.84,5.4-16.56,5.4C519.92,82.02,515.56,80.91,511.72,78.7z"/>
	<path class="st1" d="M600.56,80.86v0.36H585.8l-8.5-15.55h-7.06v15.55h-13.18v-50.4h21.46c3.74,0,7.07,0.74,9.97,2.23
		c2.9,1.49,5.17,3.58,6.8,6.26c1.63,2.69,2.45,5.78,2.45,9.29c0,3.02-0.72,5.79-2.16,8.28c-1.44,2.5-3.46,4.49-6.05,5.98
		L600.56,80.86z M570.25,54.51h7.63c2.06,0,3.67-0.55,4.82-1.66c1.15-1.1,1.73-2.62,1.73-4.54c0-1.92-0.58-3.42-1.73-4.5
		c-1.15-1.08-2.76-1.62-4.82-1.62h-7.63V54.51z"/>
	<path class="st1" d="M654.63,80.5v0.72h-14.18l-2.88-6.41h-19.01l-2.81,6.41h-14.18V80.5l23.69-50.18h5.76L654.63,80.5z
		 M623.39,63.44h9.29l-4.54-12.31L623.39,63.44z"/>
	<path class="st1" d="M711.37,30.68v50.54h-13.18V67.26l0.29-11.16l-12.67,12.89h-0.94l-12.6-12.89l0.22,11.16v13.97h-13.18V30.68
		h5.33l20.74,21.82l20.66-21.82H711.37z"/>
	<path class="st1" d="M760.73,59.73c1.27,2.04,1.91,4.31,1.91,6.8c0,2.88-0.7,5.44-2.09,7.67c-1.39,2.23-3.36,3.96-5.9,5.18
		c-2.54,1.22-5.45,1.84-8.71,1.84h-23.76v-50.4h21.24c3.36,0,6.34,0.61,8.93,1.84c2.59,1.22,4.6,2.95,6.01,5.18
		c1.42,2.23,2.12,4.79,2.12,7.67c0,1.92-0.42,3.71-1.26,5.36c-0.84,1.66-2.05,3.06-3.64,4.21
		C757.74,56.15,759.45,57.69,760.73,59.73z M745.82,43.21c-0.84-0.77-2.03-1.15-3.56-1.15h-7.06v8.64h7.06
		c1.54,0,2.72-0.38,3.56-1.15c0.84-0.77,1.26-1.82,1.26-3.17C747.08,45.03,746.66,43.98,745.82,43.21z M747.91,68.7
		c0.89-0.77,1.33-1.82,1.33-3.17c0-1.34-0.44-2.4-1.33-3.17c-0.89-0.77-2.12-1.15-3.71-1.15h-9v8.64h9
		C745.79,69.85,747.02,69.47,747.91,68.7z"/>
	<path class="st1" d="M802.23,69.42v11.81h-31.39v-50.4h13.18v38.59H802.23z"/>
	<path class="st1" d="M840.9,69.42v11.81h-32.11v-50.4h31.46v11.74h-18.36v7.49h16.92v11.52h-16.92v7.85H840.9z"/>
	<path class="st1" d="M893.46,80.86v0.36H878.7l-8.5-15.55h-7.06v15.55h-13.18v-50.4h21.46c3.74,0,7.07,0.74,9.97,2.23
		c2.9,1.49,5.17,3.58,6.8,6.26c1.63,2.69,2.45,5.78,2.45,9.29c0,3.02-0.72,5.79-2.16,8.28c-1.44,2.5-3.46,4.49-6.05,5.98
		L893.46,80.86z M863.14,54.51h7.63c2.06,0,3.67-0.55,4.82-1.66c1.15-1.1,1.73-2.62,1.73-4.54c0-1.92-0.58-3.42-1.73-4.5
		c-1.15-1.08-2.76-1.62-4.82-1.62h-7.63V54.51z"/>
</g>
</svg>
